<mxfile modified="2023-05-04T22:48:44.877Z" host="app.diagrams.net" agent="Mozilla/5.0 (X11; Linux x86_64) AppleWebKit/537.36 (KHTML, like Gecko) Chrome/112.0.0.0 Safari/537.36" etag="u_B9aSD25iaR2PRK67af" version="21.2.8" type="device">
  <diagram id="WI9T0HZ2pTsCkuznbFz-" name="Page-1">
    <mxGraphModel dx="1265" dy="499" grid="1" gridSize="10" guides="1" tooltips="1" connect="1" arrows="1" fold="1" page="1" pageScale="1" pageWidth="827" pageHeight="1169" math="0" shadow="0">
      <root>
        <mxCell id="0" />
        <mxCell id="1" parent="0" />
        <mxCell id="28heIlWIprtDJxRmpmQK-2" value="" style="rounded=0;whiteSpace=wrap;html=1;fillColor=#f5f5f5;strokeColor=none;fontColor=#333333;labelBackgroundColor=none;" parent="1" vertex="1">
          <mxGeometry x="300" y="200" width="150" height="310" as="geometry" />
        </mxCell>
        <mxCell id="28heIlWIprtDJxRmpmQK-8" style="edgeStyle=elbowEdgeStyle;rounded=0;orthogonalLoop=1;jettySize=auto;elbow=vertical;html=1;strokeColor=#808080;startArrow=classic;startFill=1;" parent="1" edge="1" target="OLqGh2U1M8ATQisH8Z9P-9">
          <mxGeometry relative="1" as="geometry">
            <mxPoint x="375" y="510" as="sourcePoint" />
            <mxPoint x="630" y="408.5" as="targetPoint" />
          </mxGeometry>
        </mxCell>
        <mxCell id="28heIlWIprtDJxRmpmQK-10" style="edgeStyle=elbowEdgeStyle;rounded=0;orthogonalLoop=1;jettySize=auto;elbow=vertical;html=1;strokeColor=#808080;entryX=0;entryY=0.5;entryDx=0;entryDy=0;entryPerimeter=0;exitX=1;exitY=0.524;exitDx=0;exitDy=0;exitPerimeter=0;" parent="1" edge="1">
          <mxGeometry relative="1" as="geometry">
            <mxPoint x="690" y="449.20000000000005" as="sourcePoint" />
            <mxPoint x="840" y="449.5" as="targetPoint" />
          </mxGeometry>
        </mxCell>
        <mxCell id="28heIlWIprtDJxRmpmQK-1" value="&lt;p style=&quot;margin-bottom: 0cm; line-height: 1px; font-size: medium; font-variant-numeric: normal; font-variant-east-asian: normal; font-variant-alternates: normal; text-align: start;&quot;&gt;&lt;font face=&quot;Calibri, sans-serif&quot;&gt;&lt;font style=&quot;font-size: 11pt;&quot;&gt;Google drive&lt;/font&gt;&lt;/font&gt;&lt;/p&gt;" style="text;html=1;resizable=0;points=[];autosize=1;align=center;verticalAlign=top;spacingTop=-4;labelBackgroundColor=none;" parent="1" vertex="1">
          <mxGeometry x="319.5" y="458.5" width="110" height="30" as="geometry" />
        </mxCell>
        <mxCell id="28heIlWIprtDJxRmpmQK-7" value="2" style="ellipse;whiteSpace=wrap;html=1;aspect=fixed;fillColor=#4D9900;strokeColor=none;labelBackgroundColor=none;" parent="1" vertex="1">
          <mxGeometry x="320" y="382" width="23" height="23" as="geometry" />
        </mxCell>
        <mxCell id="28heIlWIprtDJxRmpmQK-16" value="4" style="ellipse;whiteSpace=wrap;html=1;aspect=fixed;fillColor=#4D9900;strokeColor=none;labelBackgroundColor=none;" parent="1" vertex="1">
          <mxGeometry x="689.5" y="220.5" width="23" height="23" as="geometry" />
        </mxCell>
        <mxCell id="28heIlWIprtDJxRmpmQK-18" value="5" style="ellipse;whiteSpace=wrap;html=1;aspect=fixed;fillColor=#4D9900;strokeColor=none;labelBackgroundColor=none;" parent="1" vertex="1">
          <mxGeometry x="920" y="408.5" width="23" height="23" as="geometry" />
        </mxCell>
        <mxCell id="rI1JX8pW7Fap40Gf1UJg-1" value="" style="rounded=0;whiteSpace=wrap;html=1;fillColor=#EAEDED;fontSize=22;fontColor=#FFFFFF;strokeColor=none;labelBackgroundColor=none;" parent="1" vertex="1">
          <mxGeometry x="983.5" y="236.5" width="539" height="263.5" as="geometry" />
        </mxCell>
        <mxCell id="rI1JX8pW7Fap40Gf1UJg-2" value="&lt;span&gt;Um zip com arquivos do tipo json está armazenado no google drive.&lt;/span&gt;" style="text;html=1;align=left;verticalAlign=top;spacingTop=-4;fontSize=14;labelBackgroundColor=none;whiteSpace=wrap;" parent="1" vertex="1">
          <mxGeometry x="1053" y="257.5" width="449" height="22.5" as="geometry" />
        </mxCell>
        <mxCell id="rI1JX8pW7Fap40Gf1UJg-3" value="Arquivo armazenado com link para download." style="text;html=1;align=left;verticalAlign=top;spacingTop=-4;fontSize=14;labelBackgroundColor=none;whiteSpace=wrap;" parent="1" vertex="1">
          <mxGeometry x="1052" y="290.5" width="450" height="19.5" as="geometry" />
        </mxCell>
        <mxCell id="rI1JX8pW7Fap40Gf1UJg-4" value="&lt;span&gt;Requisição realizada via biblioteca request para o google drive.&lt;/span&gt;" style="text;html=1;align=left;verticalAlign=top;spacingTop=-4;fontSize=14;labelBackgroundColor=none;whiteSpace=wrap;" parent="1" vertex="1">
          <mxGeometry x="1052" y="338.5" width="450" height="21.5" as="geometry" />
        </mxCell>
        <mxCell id="rI1JX8pW7Fap40Gf1UJg-5" value="&lt;span&gt;Carga dos dados realizada via databricks em uma lista e posteriormente no dataframe do pandas, após isso convertido em dataframe do spark, utilizando os recursos do python, e finalmente a transformação dos dados.&lt;/span&gt;" style="text;html=1;align=left;verticalAlign=top;spacingTop=-4;fontSize=14;labelBackgroundColor=none;whiteSpace=wrap;" parent="1" vertex="1">
          <mxGeometry x="1052" y="374.5" width="450" height="75.5" as="geometry" />
        </mxCell>
        <mxCell id="rI1JX8pW7Fap40Gf1UJg-6" value="&lt;span&gt;Display dos dados via databricks, apresentação dos cálculos.&lt;/span&gt;" style="text;html=1;align=left;verticalAlign=top;spacingTop=-4;fontSize=14;labelBackgroundColor=none;whiteSpace=wrap;" parent="1" vertex="1">
          <mxGeometry x="1053" y="461.5" width="449" height="18.5" as="geometry" />
        </mxCell>
        <mxCell id="rI1JX8pW7Fap40Gf1UJg-9" value="1" style="ellipse;whiteSpace=wrap;html=1;aspect=fixed;fillColor=#4D9900;strokeColor=none;labelBackgroundColor=none;" parent="1" vertex="1">
          <mxGeometry x="1003.5" y="254" width="23" height="23" as="geometry" />
        </mxCell>
        <mxCell id="rI1JX8pW7Fap40Gf1UJg-10" value="2" style="ellipse;whiteSpace=wrap;html=1;aspect=fixed;fillColor=#4D9900;strokeColor=none;labelBackgroundColor=none;" parent="1" vertex="1">
          <mxGeometry x="1003.5" y="295" width="23" height="23" as="geometry" />
        </mxCell>
        <mxCell id="rI1JX8pW7Fap40Gf1UJg-11" value="3" style="ellipse;whiteSpace=wrap;html=1;aspect=fixed;fillColor=#4D9900;strokeColor=none;labelBackgroundColor=none;" parent="1" vertex="1">
          <mxGeometry x="1003.5" y="336" width="23" height="23" as="geometry" />
        </mxCell>
        <mxCell id="rI1JX8pW7Fap40Gf1UJg-12" value="4" style="ellipse;whiteSpace=wrap;html=1;aspect=fixed;fillColor=#4D9900;strokeColor=none;labelBackgroundColor=none;" parent="1" vertex="1">
          <mxGeometry x="1003.4999999999995" y="383" width="23" height="23" as="geometry" />
        </mxCell>
        <mxCell id="rI1JX8pW7Fap40Gf1UJg-13" value="5" style="ellipse;whiteSpace=wrap;html=1;aspect=fixed;fillColor=#4D9900;strokeColor=none;labelBackgroundColor=none;" parent="1" vertex="1">
          <mxGeometry x="1003.4999999999995" y="465.5" width="23" height="23" as="geometry" />
        </mxCell>
        <mxCell id="OLqGh2U1M8ATQisH8Z9P-1" value="" style="dashed=0;outlineConnect=0;html=1;align=center;labelPosition=center;verticalLabelPosition=bottom;verticalAlign=top;shape=mxgraph.weblogos.google_drive" vertex="1" parent="1">
          <mxGeometry x="341" y="387" width="66.4" height="58" as="geometry" />
        </mxCell>
        <mxCell id="OLqGh2U1M8ATQisH8Z9P-2" value="" style="image;sketch=0;aspect=fixed;html=1;points=[];align=center;fontSize=12;image=img/lib/mscae/Databricks.svg;" vertex="1" parent="1">
          <mxGeometry x="640" y="427" width="50" height="48" as="geometry" />
        </mxCell>
        <mxCell id="OLqGh2U1M8ATQisH8Z9P-4" value="&lt;p style=&quot;margin-bottom: 0cm; line-height: 1px; font-size: medium; font-variant-numeric: normal; font-variant-east-asian: normal; font-variant-alternates: normal; text-align: start;&quot;&gt;&lt;font face=&quot;Calibri, sans-serif&quot;&gt;&lt;font style=&quot;font-size: 11pt;&quot;&gt;Databricks&lt;/font&gt;&lt;/font&gt;&lt;/p&gt;" style="text;html=1;resizable=0;points=[];autosize=1;align=center;verticalAlign=top;spacingTop=-4;labelBackgroundColor=none;" vertex="1" parent="1">
          <mxGeometry x="620.5" y="468.5" width="90" height="30" as="geometry" />
        </mxCell>
        <mxCell id="OLqGh2U1M8ATQisH8Z9P-5" value="" style="shape=image;verticalLabelPosition=bottom;labelBackgroundColor=#ffffff;verticalAlign=top;aspect=fixed;imageAspect=0;image=data:image/svg+xml,PHN2ZyB4bWxuczpjYz0iaHR0cDovL2NyZWF0aXZlY29tbW9ucy5vcmcvbnMjIiB4bWxuczpkYz0iaHR0cDovL3B1cmwub3JnL2RjL2VsZW1lbnRzLzEuMS8iIHhtbG5zOmlua3NjYXBlPSJodHRwOi8vd3d3Lmlua3NjYXBlLm9yZy9uYW1lc3BhY2VzL2lua3NjYXBlIiB4bWxuczpyZGY9Imh0dHA6Ly93d3cudzMub3JnLzE5OTkvMDIvMjItcmRmLXN5bnRheC1ucyMiIHhtbG5zOnNvZGlwb2RpPSJodHRwOi8vc29kaXBvZGkuc291cmNlZm9yZ2UubmV0L0RURC9zb2RpcG9kaS0wLmR0ZCIgeG1sbnM6c3ZnPSJodHRwOi8vd3d3LnczLm9yZy8yMDAwL3N2ZyIgeG1sbnM9Imh0dHA6Ly93d3cudzMub3JnLzIwMDAvc3ZnIiB4bWxuczp4bGluaz0iaHR0cDovL3d3dy53My5vcmcvMTk5OS94bGluayIgdmVyc2lvbj0iMS4xIiBpZD0ic3ZnNjg2NjEiIGlua3NjYXBlOnZlcnNpb249IjAuOTIuMyAoMjQwNTU0NiwgMjAxOC0wMy0xMSkiIHNvZGlwb2RpOmRvY25hbWU9Impzb24uc3ZnIiB4PSIwcHgiIHk9IjBweCIgdmlld0JveD0iMCAwIDI2LjcyIDM1LjE1IiBzdHlsZT0iZW5hYmxlLWJhY2tncm91bmQ6bmV3IDAgMCAyNi43MiAzNS4xNTsiIHhtbDpzcGFjZT0icHJlc2VydmUiPiYjeGE7PHNvZGlwb2RpOm5hbWVkdmlldyBib3JkZXJjb2xvcj0iIzY2NjY2NiIgYm9yZGVyb3BhY2l0eT0iMSIgZml0LW1hcmdpbi1ib3R0b209IjAiIGZpdC1tYXJnaW4tbGVmdD0iMCIgZml0LW1hcmdpbi1yaWdodD0iMCIgZml0LW1hcmdpbi10b3A9IjAiIGdyaWR0b2xlcmFuY2U9IjEwIiBndWlkZXRvbGVyYW5jZT0iMTAiIGlkPSJuYW1lZHZpZXc2ODY2MyIgaW5rc2NhcGU6Y3VycmVudC1sYXllcj0ic3ZnNjg2NjEiIGlua3NjYXBlOmN4PSIyOC4zNjg5MTgiIGlua3NjYXBlOmN5PSIxNC4yOTU4NyIgaW5rc2NhcGU6cGFnZW9wYWNpdHk9IjAiIGlua3NjYXBlOnBhZ2VzaGFkb3c9IjIiIGlua3NjYXBlOndpbmRvdy1oZWlnaHQ9IjEwMTciIGlua3NjYXBlOndpbmRvdy1tYXhpbWl6ZWQ9IjEiIGlua3NjYXBlOndpbmRvdy13aWR0aD0iMTkyMCIgaW5rc2NhcGU6d2luZG93LXg9Ii04IiBpbmtzY2FwZTp3aW5kb3cteT0iLTgiIGlua3NjYXBlOnpvb209IjUuNzAzMDQ0NyIgb2JqZWN0dG9sZXJhbmNlPSIxMCIgcGFnZWNvbG9yPSIjZmZmZmZmIiBzaG93Z3JpZD0iZmFsc2UiPiYjeGE7CTwvc29kaXBvZGk6bmFtZWR2aWV3PiYjeGE7PGcgaWQ9Imc2ODY1OSIgdHJhbnNmb3JtPSJ0cmFuc2xhdGUoLTEwLjkyODYsLTEwLjkzMTQpIj4mI3hhOwk8dGl0bGUgaWQ9InRpdGxlNjg1ODciPlBhZ2UtMTwvdGl0bGU+JiN4YTsJPGcgaWQ9Imdyb3VwNDEzMy0xIiB0cmFuc2Zvcm09InRyYW5zbGF0ZSgxMC45Mjg2LC0xMC45Mjg2KSI+JiN4YTsJCTx0aXRsZSBpZD0idGl0bGU2ODU4OSI+SlNPTjwvdGl0bGU+JiN4YTsJCTxnIGlkPSJncm91cDQxMzQtMiI+JiN4YTsJCQk8dGl0bGUgaWQ9InRpdGxlNjg1OTEiPkpTPC90aXRsZT4mI3hhOwkJCTxnIGlkPSJncm91cDQxMzUtMyI+JiN4YTsJCQkJPHRpdGxlIGlkPSJ0aXRsZTY4NTkzIj5TaGVldC40MTM1PC90aXRsZT4mI3hhOwkJCQk8ZyBpZD0ic2hhcGU0MTM2LTQiPiYjeGE7CQkJCQk8dGl0bGUgaWQ9InRpdGxlNjg1OTUiPlNoZWV0LjQxMzY8L3RpdGxlPiYjeGE7CQkJCQk8cGF0aCBpZD0icGF0aDY4NTk3IiBpbmtzY2FwZTpjb25uZWN0b3ItY3VydmF0dXJlPSIwIiBzdHlsZT0iZmlsbDojRTlFOUUwOyIgZD0iTTE4Ljk0LDIxLjg2SDAuOTFjLTAuNSwwLTAuOTEsMC40MS0wLjkxLDEuMjEgICAgICAgdjMzLjMxYzAsMC4yMiwwLjQxLDAuNjMsMC45MSwwLjYzaDI0LjljMC41LDAsMC45MS0wLjQxLDAuOTEtMC42M1YzMGMwLTAuNDMtMC4wNi0wLjU3LTAuMTYtMC42OGwtNy4yMy03LjMgICAgICAgQzE5LjIzLDIxLjkyLDE5LjA5LDIxLjg2LDE4Ljk0LDIxLjg2eiIvPiYjeGE7CQkJCTwvZz4mI3hhOwkJCQk8ZyBpZD0ic2hhcGU0MTM3LTYiIHRyYW5zZm9ybT0idHJhbnNsYXRlKDE5LjI2MiwtMjcuNjE5MykiPiYjeGE7CQkJCQk8dGl0bGUgaWQ9InRpdGxlNjg2MDAiPlNoZWV0LjQxMzc8L3RpdGxlPiYjeGE7CQkJCQk8cGF0aCBpZD0icGF0aDY4NjAyIiBpbmtzY2FwZTpjb25uZWN0b3ItY3VydmF0dXJlPSIwIiBzdHlsZT0iZmlsbDojRDlEN0NBOyIgZD0iTTAsNDkuNTd2Ny40NGg3LjM2TDAsNDkuNTd6Ii8+JiN4YTsJCQkJPC9nPiYjeGE7CQkJCTxnIGlkPSJzaGFwZTQxMzgtOCI+JiN4YTsJCQkJCTx0aXRsZSBpZD0idGl0bGU2ODYwNSI+U2hlZXQuNDEzODwvdGl0bGU+JiN4YTsJCQkJCTxwYXRoIGlkPSJwYXRoNjg2MDciIGlua3NjYXBlOmNvbm5lY3Rvci1jdXJ2YXR1cmU9IjAiIHN0eWxlPSJmaWxsOiNFRUFGNEI7IiBkPSJNMjUuODEsNTcuMDFIMC45MUMwLjQxLDU3LjAxLDAsNTYuNiwwLDU2LjA5ICAgICAgIHYtOS43NWgyNi43MnY5Ljc1QzI2LjcyLDU2LjYsMjYuMzEsNTcuMDEsMjUuODEsNTcuMDF6Ii8+JiN4YTsJCQkJPC9nPiYjeGE7CQkJCTxnIGlkPSJncm91cDQxMzktMTAiIHRyYW5zZm9ybT0idHJhbnNsYXRlKDQuOTcwODUsLTE1LjA2NTEpIj4mI3hhOwkJCQkJPHRpdGxlIGlkPSJ0aXRsZTY4NjEwIj5TaGVldC40MTM5PC90aXRsZT4mI3hhOwkJCQkJPGcgaWQ9InNoYXBlNDE0MC0xMSI+JiN4YTsJCQkJCQk8dGl0bGUgaWQ9InRpdGxlNjg2MTIiPlNoZWV0LjQxNDA8L3RpdGxlPiYjeGE7CQkJCQkJPHBhdGggaWQ9InBhdGg2ODYxNCIgaW5rc2NhcGU6Y29ubmVjdG9yLWN1cnZhdHVyZT0iMCIgc3R5bGU9ImZpbGw6I0VFQUY0QjsiIGQ9Ik0zLjExLDQ4Ljg1di0yLjUxICAgICAgICBjMC0wLjM1LDAuMjgtMC42MywwLjYyLTAuNjNzMC42Mi0wLjI4LDAuNjItMC42M2MwLTAuMzQtMC4yOC0wLjYzLTAuNjItMC42M2MtMS4wMywwLTEuODcsMC44NS0xLjg3LDEuODl2Mi41MSAgICAgICAgYzAsMC42OS0wLjU1LDEuMjUtMS4yNCwxLjI1QzAuMjgsNTAuMSwwLDUwLjM5LDAsNTAuNzNjMCwwLjM1LDAuMjgsMC42MywwLjYyLDAuNjNjMC42OSwwLDEuMjQsMC41NiwxLjI0LDEuMjZ2Mi41MSAgICAgICAgYzAsMS4wMywwLjg0LDEuODgsMS44NywxLjg4YzAuMzQsMCwwLjYyLTAuMjgsMC42Mi0wLjYzYzAtMC4zNS0wLjI4LTAuNjMtMC42Mi0wLjYzcy0wLjYyLTAuMjgtMC42Mi0wLjYydi0yLjUxICAgICAgICBjMC0wLjc2LTAuMzQtMS40My0wLjg2LTEuODlDMi43Nyw1MC4yNywzLjExLDQ5LjYsMy4xMSw0OC44NXoiLz4mI3hhOwkJCQkJPC9nPiYjeGE7CQkJCQk8ZyBpZD0ic2hhcGU0MTQxLTEzIiB0cmFuc2Zvcm09InRyYW5zbGF0ZSg3LjE0NTU5LC03LjUzMjU0KSI+JiN4YTsJCQkJCQk8dGl0bGUgaWQ9InRpdGxlNjg2MTciPlNoZWV0LjQxNDE8L3RpdGxlPiYjeGE7CQkJCQkJPGVsbGlwc2UgaWQ9ImVsbGlwc2U2ODYxOSIgc3R5bGU9ImZpbGw6I0VFQUY0QjsiIGN4PSIwLjkzIiBjeT0iNTYuMDciIHJ4PSIwLjkzIiByeT0iMC45NCIvPiYjeGE7CQkJCQk8L2c+JiN4YTsJCQkJCTxnIGlkPSJzaGFwZTQxNDItMTUiIHRyYW5zZm9ybT0idHJhbnNsYXRlKDExLjgwNTgpIj4mI3hhOwkJCQkJCTx0aXRsZSBpZD0idGl0bGU2ODYyMiI+U2hlZXQuNDE0MjwvdGl0bGU+JiN4YTsJCQkJCQk8cGF0aCBpZD0icGF0aDY4NjI0IiBpbmtzY2FwZTpjb25uZWN0b3ItY3VydmF0dXJlPSIwIiBzdHlsZT0iZmlsbDojRUVBRjRCOyIgZD0iTTMuNzMsNTAuMWMtMC42OSwwLTEuMjQtMC41Ni0xLjI0LTEuMjUgICAgICAgIHYtMi41MWMwLTEuMDQtMC44NC0xLjg5LTEuODctMS44OUMwLjI4LDQ0LjQ1LDAsNDQuNzQsMCw0NS4wOGMwLDAuMzUsMC4yOCwwLjYzLDAuNjIsMC42M3MwLjYyLDAuMjgsMC42MiwwLjYzdjIuNTEgICAgICAgIGMwLDAuNzUsMC4zNCwxLjQyLDAuODYsMS44OGMtMC41MiwwLjQ2LTAuODYsMS4xMy0wLjg2LDEuODl2Mi41MWMwLDAuMzQtMC4yOCwwLjYyLTAuNjIsMC42MlMwLDU2LjAzLDAsNTYuMzggICAgICAgIGMwLDAuMzUsMC4yOCwwLjYzLDAuNjIsMC42M2MxLjAzLDAsMS44Ny0wLjg1LDEuODctMS44OHYtMi41MWMwLTAuNywwLjU1LTEuMjYsMS4yNC0xLjI2YzAuMzQsMCwwLjYyLTAuMjgsMC42Mi0wLjYzICAgICAgICBDNC4zNSw1MC4zOSw0LjA3LDUwLjEsMy43Myw1MC4xeiIvPiYjeGE7CQkJCQk8L2c+JiN4YTsJCQkJCTxnIGlkPSJzaGFwZTQxNDMtMTciIHRyYW5zZm9ybT0idHJhbnNsYXRlKDcuNDU2MjcsLTEuODgzMTQpIj4mI3hhOwkJCQkJCTx0aXRsZSBpZD0idGl0bGU2ODYyNyI+U2hlZXQuNDE0MzwvdGl0bGU+JiN4YTsJCQkJCQk8cGF0aCBpZD0icGF0aDY4NjI5IiBpbmtzY2FwZTpjb25uZWN0b3ItY3VydmF0dXJlPSIwIiBzdHlsZT0iZmlsbDojRUVBRjRCOyIgZD0iTTAuNjIsNTMuODdDMC4yOCw1My44NywwLDU0LjE1LDAsNTQuNXYxLjg4ICAgICAgICBjMCwwLjM1LDAuMjgsMC42MywwLjYyLDAuNjNzMC42Mi0wLjI4LDAuNjItMC42M1Y1NC41QzEuMjQsNTQuMTUsMC45Niw1My44NywwLjYyLDUzLjg3eiIvPiYjeGE7CQkJCQk8L2c+JiN4YTsJCQkJPC9nPiYjeGE7CQkJPC9nPiYjeGE7CQk8L2c+JiN4YTsJCTxnIGlkPSJncm91cDQxNDQtMTkiIHRyYW5zZm9ybT0idHJhbnNsYXRlKDMuODEzMzQsLTIuNDU3ODEpIj4mI3hhOwkJCTx0aXRsZSBpZD0idGl0bGU2ODYzNSI+SlNPTi4zNjY2NDwvdGl0bGU+JiN4YTsJCQk8ZyBpZD0ic2hhcGU0MTQ1LTIwIiB0cmFuc2Zvcm09InRyYW5zbGF0ZSgwLC01LjMwOTcyZS01KSI+JiN4YTsJCQkJPHRpdGxlIGlkPSJ0aXRsZTY4NjM3Ij5TaGVldC40MTQ1PC90aXRsZT4mI3hhOwkJCQk8cGF0aCBpZD0icGF0aDY4NjM5IiBpbmtzY2FwZTpjb25uZWN0b3ItY3VydmF0dXJlPSIwIiBzdHlsZT0iZmlsbDojRkZGRkZGOyIgZD0iTTMuNDgsNTEuMTd2NC40M2MwLDAuMjYtMC4wNSwwLjQ5LTAuMTUsMC42NyAgICAgIGMtMC4wOSwwLjE4LTAuMjMsMC4zMy0wLjM5LDAuNDRjLTAuMTYsMC4xMS0wLjM1LDAuMTktMC41NywwLjIzYy0wLjIxLDAuMDUtMC40MywwLjA3LTAuNjYsMC4wN2MtMC4xMSwwLTAuMjQtMC4wMS0wLjM5LTAuMDQgICAgICBjLTAuMTYtMC4wMi0wLjMxLTAuMDUtMC40OC0wLjFjLTAuMTYtMC4wNS0wLjMxLTAuMTEtMC40Ni0wLjE3QzAuMjMsNTYuNjQsMC4xLDU2LjU3LDAsNTYuNDlsMC4zOS0wLjYyICAgICAgYzAuMDUsMC4wMywwLjEzLDAuMDcsMC4yMiwwLjExYzAuMSwwLjA0LDAuMiwwLjA3LDAuMzIsMC4xMWMwLjExLDAuMDMsMC4yMywwLjA2LDAuMzUsMC4wOWMwLjEyLDAuMDIsMC4yNCwwLjAzLDAuMzUsMC4wMyAgICAgIGMwLjI3LDAsMC40OS0wLjA1LDAuNjUtMC4xNWMwLjE2LTAuMTEsMC4yNS0wLjI5LDAuMjYtMC41NHYtNC4zNUwzLjQ4LDUxLjE3eiIvPiYjeGE7CQkJPC9nPiYjeGE7CQkJPGcgaWQ9InNoYXBlNDE0Ni0yMiIgdHJhbnNmb3JtPSJ0cmFuc2xhdGUoNC43ODQwNSwtMC4wMDc4NTgzOCkiPiYjeGE7CQkJCTx0aXRsZSBpZD0idGl0bGU2ODY0MiI+U2hlZXQuNDE0NjwvdGl0bGU+JiN4YTsJCQkJPHBhdGggaWQ9InBhdGg2ODY0NCIgaW5rc2NhcGU6Y29ubmVjdG9yLWN1cnZhdHVyZT0iMCIgc3R5bGU9ImZpbGw6I0ZGRkZGRjsiIGQ9Ik0zLjMsNTUuNDJjMCwwLjIxLTAuMDQsMC40LTAuMTIsMC42ICAgICAgYy0wLjA5LDAuMTktMC4yMSwwLjM2LTAuMzYsMC41MWMtMC4xNiwwLjE0LTAuMzUsMC4yNi0wLjU3LDAuMzVjLTAuMjMsMC4wOS0wLjQ5LDAuMTMtMC43OCwwLjEzYy0wLjEyLDAtMC4yNS0wLjAxLTAuMzgtMC4wMiAgICAgIGMtMC4xMy0wLjAxLTAuMjYtMC4wNC0wLjQtMC4wN2MtMC4xMy0wLjAzLTAuMjYtMC4wNy0wLjM4LTAuMTJDMC4xOSw1Ni43NCwwLjA5LDU2LjY4LDAsNTYuNmwwLjE2LTAuNjYgICAgICBjMC4wNywwLjA0LDAuMTcsMC4wOCwwLjI4LDAuMTJjMC4xMSwwLjAzLDAuMjIsMC4wNywwLjM0LDAuMWMwLjEyLDAuMDQsMC4yNCwwLjA2LDAuMzUsMC4wOGMwLjEyLDAuMDMsMC4yMywwLjA0LDAuMzQsMC4wNCAgICAgIGMwLjMxLDAsMC41NS0wLjA4LDAuNzItMC4yMmMwLjE2LTAuMTUsMC4yNS0wLjM3LDAuMjUtMC42NmMwLTAuMTctMC4wNi0wLjMyLTAuMTgtMC40NGMtMC4xMi0wLjEzLTAuMjctMC4yNC0wLjQ0LTAuMzQgICAgICBjLTAuMTgtMC4xLTAuMzctMC4yLTAuNTgtMC4zYy0wLjItMC4xLTAuNC0wLjIyLTAuNTgtMC4zNmMtMC4xOC0wLjEzLTAuMzMtMC4yOS0wLjQ0LTAuNDhjLTAuMTItMC4xOC0wLjE4LTAuNDEtMC4xOC0wLjY5ICAgICAgYzAtMC4yNSwwLjA0LTAuNDgsMC4xNC0wLjY3YzAuMDktMC4yLDAuMjEtMC4zNiwwLjM3LTAuNXMwLjM0LTAuMjQsMC41NS0wLjMxYzAuMjEtMC4wOCwwLjQzLTAuMTEsMC42Ni0wLjExICAgICAgYzAuMjQsMCwwLjQ4LDAuMDIsMC43MiwwLjA2YzAuMjQsMC4wNSwwLjQzLDAuMTIsMC41OCwwLjIyQzMuMDMsNTEuNTQsMyw1MS42MiwyLjk2LDUxLjdjLTAuMDUsMC4wOC0wLjA4LDAuMTUtMC4xMiwwLjIyICAgICAgYy0wLjA0LDAuMDctMC4wNywwLjEzLTAuMDksMC4xN2MtMC4wMywwLjA1LTAuMDQsMC4wOC0wLjA1LDAuMDhjLTAuMDMtMC4wMS0wLjA2LTAuMDMtMC4xLTAuMDZjLTAuMDQtMC4wMy0wLjEtMC4wNS0wLjE3LTAuMDggICAgICBjLTAuMDctMC4wMi0wLjE3LTAuMDQtMC4yOS0wLjA1Yy0wLjExLTAuMDEtMC4yNy0wLjAxLTAuNDUsMC4wMWMtMC4xLDAuMDEtMC4yLDAuMDQtMC4yOSwwLjA4Yy0wLjEsMC4wNS0wLjE4LDAuMTEtMC4yNSwwLjE5ICAgICAgYy0wLjA3LDAuMDctMC4xMywwLjE1LTAuMTcsMC4yNGMtMC4wNCwwLjA5LTAuMDYsMC4xOC0wLjA2LDAuMjZjMCwwLjIsMC4wNiwwLjM3LDAuMTcsMC41YzAuMTIsMC4xMiwwLjI3LDAuMjMsMC40NCwwLjMzICAgICAgYzAuMTgsMC4wOSwwLjM3LDAuMTksMC41OCwwLjI4YzAuMiwwLjA4LDAuMzksMC4xOSwwLjU3LDAuMzJjMC4xOCwwLjEzLDAuMzMsMC4yOSwwLjQ0LDAuNDlDMy4yNCw1NC44NywzLjMsNTUuMTIsMy4zLDU1LjQyeiIvPiYjeGE7CQkJPC9nPiYjeGE7CQkJPGcgaWQ9InNoYXBlNDE0Ny0yNCIgdHJhbnNmb3JtPSJ0cmFuc2xhdGUoOC45MzY1MikiPiYjeGE7CQkJCTx0aXRsZSBpZD0idGl0bGU2ODY0NyI+U2hlZXQuNDE0NzwvdGl0bGU+JiN4YTsJCQkJPHBhdGggaWQ9InBhdGg2ODY0OSIgaW5rc2NhcGU6Y29ubmVjdG9yLWN1cnZhdHVyZT0iMCIgc3R5bGU9ImZpbGw6I0ZGRkZGRjsiIGQ9Ik00Ljc0LDU0LjFjMCwwLjQ4LTAuMDYsMC45LTAuMTgsMS4yNyAgICAgIGMtMC4xMiwwLjM2LTAuMjksMC42Ni0wLjUxLDAuOTFjLTAuMjEsMC4yNC0wLjQ2LDAuNDItMC43NCwwLjU0Yy0wLjI5LDAuMTMtMC42LDAuMTktMC45NCwwLjE5cy0wLjY1LTAuMDYtMC45NC0wLjE5ICAgICAgYy0wLjI4LTAuMTItMC41My0wLjMtMC43NS0wLjU0Yy0wLjIxLTAuMjUtMC4zOC0wLjU1LTAuNS0wLjkxQzAuMDYsNTUsMCw1NC41OCwwLDU0LjFjMC0wLjQ4LDAuMDYtMC45LDAuMTgtMS4yNiAgICAgIHMwLjI5LTAuNjcsMC41LTAuOTFjMC4yMi0wLjI0LDAuNDctMC40MiwwLjc1LTAuNTVjMC4yOS0wLjEzLDAuNi0wLjE5LDAuOTQtMC4xOXMwLjY1LDAuMDYsMC45NCwwLjE5ICAgICAgYzAuMjgsMC4xMywwLjUzLDAuMzEsMC43NCwwLjU1YzAuMjIsMC4yNCwwLjM5LDAuNTUsMC41MSwwLjkxQzQuNjgsNTMuMiw0Ljc0LDUzLjYyLDQuNzQsNTQuMXogTTIuMzUsNTYuMjUgICAgICBjMC4xOSwwLDAuMzctMC4wMywwLjU0LTAuMTFjMC4xNy0wLjA3LDAuMzMtMC4yLDAuNDYtMC4zNmMwLjE0LTAuMTcsMC4yNS0wLjQsMC4zMi0wLjY3YzAuMDgtMC4yOCwwLjEyLTAuNjEsMC4xMy0xLjAxICAgICAgYy0wLjAxLTAuMzktMC4wNS0wLjcxLTAuMTItMC45OGMtMC4wOC0wLjI3LTAuMTgtMC41LTAuMzEtMC42N2MtMC4xMy0wLjE4LTAuMjgtMC4zLTAuNDUtMC4zOGMtMC4xNy0wLjA4LTAuMzQtMC4xMS0wLjUzLTAuMTEgICAgICBjLTAuMTksMC0wLjM3LDAuMDMtMC41NCwwLjFjLTAuMTgsMC4wOC0wLjMzLDAuMi0wLjQ3LDAuMzdjLTAuMTMsMC4xNy0wLjI0LDAuMzktMC4zMiwwLjY3Yy0wLjA3LDAuMjctMC4xMSwwLjYtMC4xMiwxICAgICAgYzAuMDEsMC4zOSwwLjA1LDAuNzIsMC4xMiwwLjk5YzAuMDgsMC4yNywwLjE4LDAuNDksMC4zMSwwLjY3YzAuMTMsMC4xNywwLjI4LDAuMjksMC40NSwwLjM3QzEuOTgsNTYuMjEsMi4xNiw1Ni4yNSwyLjM1LDU2LjI1ICAgICAgeiIvPiYjeGE7CQkJPC9nPiYjeGE7CQkJPGcgaWQ9InNoYXBlNDE0OC0yNiIgdHJhbnNmb3JtPSJ0cmFuc2xhdGUoMTQuOTc4NywtMC4wMzgzODkyKSI+JiN4YTsJCQkJPHRpdGxlIGlkPSJ0aXRsZTY4NjUyIj5TaGVldC40MTQ4PC90aXRsZT4mI3hhOwkJCQk8cGF0aCBpZD0icGF0aDY4NjU0IiBpbmtzY2FwZTpjb25uZWN0b3ItY3VydmF0dXJlPSIwIiBzdHlsZT0iZmlsbDojRkZGRkZGOyIgZD0iTTQuMTEsNTEuMzJ2NS42OUgzLjE3bC0yLjIzLTMuOTJ2My45Mkgwdi01LjY5ICAgICAgaDAuOTRsMi4yMywzLjkydi0zLjkyTDQuMTEsNTEuMzJ6Ii8+JiN4YTsJCQk8L2c+JiN4YTsJCTwvZz4mI3hhOwk8L2c+JiN4YTs8L2c+JiN4YTs8L3N2Zz4=;" vertex="1" parent="1">
          <mxGeometry x="351.11" y="230.5" width="46.29" height="54" as="geometry" />
        </mxCell>
        <mxCell id="OLqGh2U1M8ATQisH8Z9P-6" style="edgeStyle=elbowEdgeStyle;rounded=0;orthogonalLoop=1;jettySize=auto;elbow=vertical;html=1;strokeColor=#808080;exitX=1;exitY=0.524;exitDx=0;exitDy=0;exitPerimeter=0;" edge="1" parent="1">
          <mxGeometry relative="1" as="geometry">
            <mxPoint x="370" y="289.20000000000005" as="sourcePoint" />
            <mxPoint x="370" y="380" as="targetPoint" />
          </mxGeometry>
        </mxCell>
        <mxCell id="OLqGh2U1M8ATQisH8Z9P-7" value="1" style="ellipse;whiteSpace=wrap;html=1;aspect=fixed;fillColor=#4D9900;strokeColor=none;labelBackgroundColor=none;" vertex="1" parent="1">
          <mxGeometry x="320" y="230" width="23" height="23" as="geometry" />
        </mxCell>
        <mxCell id="OLqGh2U1M8ATQisH8Z9P-9" value="" style="sketch=0;pointerEvents=1;shadow=0;dashed=0;html=1;strokeColor=none;fillColor=#505050;labelPosition=center;verticalLabelPosition=bottom;outlineConnect=0;verticalAlign=top;align=center;shape=mxgraph.office.clouds.cloud_service_request;" vertex="1" parent="1">
          <mxGeometry x="471" y="610" width="102" height="80" as="geometry" />
        </mxCell>
        <mxCell id="OLqGh2U1M8ATQisH8Z9P-10" style="edgeStyle=elbowEdgeStyle;rounded=0;orthogonalLoop=1;jettySize=auto;elbow=vertical;html=1;strokeColor=#808080;startArrow=classic;startFill=1;" edge="1" parent="1">
          <mxGeometry relative="1" as="geometry">
            <mxPoint x="660" y="510" as="sourcePoint" />
            <mxPoint x="532" y="610" as="targetPoint" />
            <Array as="points">
              <mxPoint x="590" y="560" />
            </Array>
          </mxGeometry>
        </mxCell>
        <mxCell id="OLqGh2U1M8ATQisH8Z9P-13" value="3" style="ellipse;whiteSpace=wrap;html=1;aspect=fixed;fillColor=#4D9900;strokeColor=none;labelBackgroundColor=none;" vertex="1" parent="1">
          <mxGeometry x="565" y="608" width="23" height="23" as="geometry" />
        </mxCell>
        <mxCell id="OLqGh2U1M8ATQisH8Z9P-14" value="" style="shape=image;verticalLabelPosition=bottom;labelBackgroundColor=#ffffff;verticalAlign=top;aspect=fixed;imageAspect=0;image=data:image/svg+xml,PHN2ZyB4bWxuczpjYz0iaHR0cDovL2NyZWF0aXZlY29tbW9ucy5vcmcvbnMjIiB4bWxuczpkYz0iaHR0cDovL3B1cmwub3JnL2RjL2VsZW1lbnRzLzEuMS8iIHhtbG5zOmlua3NjYXBlPSJodHRwOi8vd3d3Lmlua3NjYXBlLm9yZy9uYW1lc3BhY2VzL2lua3NjYXBlIiB4bWxuczpyZGY9Imh0dHA6Ly93d3cudzMub3JnLzE5OTkvMDIvMjItcmRmLXN5bnRheC1ucyMiIHhtbG5zOnNvZGlwb2RpPSJodHRwOi8vc29kaXBvZGkuc291cmNlZm9yZ2UubmV0L0RURC9zb2RpcG9kaS0wLmR0ZCIgeG1sbnM6c3ZnPSJodHRwOi8vd3d3LnczLm9yZy8yMDAwL3N2ZyIgeG1sbnM9Imh0dHA6Ly93d3cudzMub3JnLzIwMDAvc3ZnIiB4bWxuczp4bGluaz0iaHR0cDovL3d3dy53My5vcmcvMTk5OS94bGluayIgdmVyc2lvbj0iMS4xIiBpZD0ic3ZnMTk2OTUxIiBpbmtzY2FwZTp2ZXJzaW9uPSIwLjkyLjMgKDI0MDU1NDYsIDIwMTgtMDMtMTEpIiBzb2RpcG9kaTpkb2NuYW1lPSJweXRob25fdG9vbHNfYW5kX3Nkay5zdmciIHg9IjBweCIgeT0iMHB4IiB2aWV3Qm94PSIwIDAgNDggNDgiIHN0eWxlPSJlbmFibGUtYmFja2dyb3VuZDpuZXcgMCAwIDQ4IDQ4OyIgeG1sOnNwYWNlPSJwcmVzZXJ2ZSI+JiN4YTs8c29kaXBvZGk6bmFtZWR2aWV3IGJvcmRlcmNvbG9yPSIjNjY2NjY2IiBib3JkZXJvcGFjaXR5PSIxIiBmaXQtbWFyZ2luLWJvdHRvbT0iMCIgZml0LW1hcmdpbi1sZWZ0PSIwIiBmaXQtbWFyZ2luLXJpZ2h0PSIwIiBmaXQtbWFyZ2luLXRvcD0iMCIgZ3JpZHRvbGVyYW5jZT0iMTAiIGd1aWRldG9sZXJhbmNlPSIxMCIgaWQ9Im5hbWVkdmlldzE5Njk1MyIgaW5rc2NhcGU6Y3VycmVudC1sYXllcj0ic3ZnMTk2OTUxIiBpbmtzY2FwZTpjeD0iMzIuMDAwMDE1IiBpbmtzY2FwZTpjeT0iMzIuMDAwNTg2IiBpbmtzY2FwZTpwYWdlb3BhY2l0eT0iMCIgaW5rc2NhcGU6cGFnZXNoYWRvdz0iMiIgaW5rc2NhcGU6d2luZG93LWhlaWdodD0iMTAxNyIgaW5rc2NhcGU6d2luZG93LW1heGltaXplZD0iMSIgaW5rc2NhcGU6d2luZG93LXdpZHRoPSIxOTIwIiBpbmtzY2FwZTp3aW5kb3cteD0iLTgiIGlua3NjYXBlOndpbmRvdy15PSItOCIgaW5rc2NhcGU6em9vbT0iMTAuMjcyOTE3IiBvYmplY3R0b2xlcmFuY2U9IjEwIiBwYWdlY29sb3I9IiNmZmZmZmYiIHNob3dncmlkPSJmYWxzZSI+JiN4YTsJPC9zb2RpcG9kaTpuYW1lZHZpZXc+JiN4YTs8ZyBpZD0iZzE5Njk0OSIgdHJhbnNmb3JtPSJ0cmFuc2xhdGUoLTcuNjUsLTcuNjQ5MjgwNikiPiYjeGE7CTx0aXRsZSBpZD0idGl0bGUxOTY5MDUiPlBhZ2UtMTwvdGl0bGU+JiN4YTsJPGcgaWQ9Imdyb3VwMTE3Ny0xIiB0cmFuc2Zvcm09InRyYW5zbGF0ZSg3LjY1LC03LjYxMzQyKSI+JiN4YTsJCTx0aXRsZSBpZD0idGl0bGUxOTY5MDciPlB5dGhvbiBUb29scyBhbmQgU0RLPC90aXRsZT4mI3hhOwkJPGcgaWQ9Imdyb3VwMTE3OC0yIj4mI3hhOwkJCTx0aXRsZSBpZD0idGl0bGUxOTY5MDkiPlNoZWV0LjExNzg8L3RpdGxlPiYjeGE7CQkJPGcgaWQ9Imdyb3VwMTE3OS0zIiB0cmFuc2Zvcm09InRyYW5zbGF0ZSgwLC0xMi4zMTQ3KSI+JiN4YTsJCQkJPHRpdGxlIGlkPSJ0aXRsZTE5NjkxMSI+U2hlZXQuMTE3OTwvdGl0bGU+JiN4YTsJCQkJPGcgaWQ9InNoYXBlMTE4MC00Ij4mI3hhOwkJCQkJPHRpdGxlIGlkPSJ0aXRsZTE5NjkxMyI+U2hlZXQuMTE4MDwvdGl0bGU+JiN4YTsJCQkJCTxwYXRoIGlkPSJwYXRoMTk2OTE1IiBpbmtzY2FwZTpjb25uZWN0b3ItY3VydmF0dXJlPSIwIiBzdHlsZT0iZmlsbDojMzc3MkE0OyIgZD0iTTAsNTEuMTdjMC4wMi0wLjA2LDAuMDQtMC4xMywwLjA1LTAuMiAgICAgICBjMC4wNC0wLjcsMC4wNC0xLjQsMC4xMS0yLjFjMC4yNC0yLjI2LDAuNzYtNC40NCwyLjE4LTYuMjhjMS4xLTEuNDQsMi41NC0yLjMsNC4zMy0yLjU0YzAuMjUtMC4wMywwLjUxLTAuMDQsMC43Ni0wLjA0ICAgICAgIGM1LjM5LDAsMTAuNzksMCwxNi4xOCwwYzAuMzEsMCwwLjMxLDAsMC4zMi0wLjMyYzAtMC4zNy0wLjAyLTAuNzUsMC0xLjEyYzAuMDEtMC4yMy0wLjA3LTAuMjktMC4yOS0wLjI5ICAgICAgIGMtMi45OCwwLjAxLTUuOTUsMC4wMS04LjkzLDAuMDFjLTAuNywwLTEuMzktMC4wMS0yLjA5LDBjLTAuMTksMC0wLjI2LTAuMDUtMC4yNS0wLjI1YzAtMS44My0wLjAxLTMuNjcsMC01LjUgICAgICAgYzAuMDEtMC44MiwwLjQtMS41MSwwLjkzLTIuMTFjMC43NC0wLjg0LDEuNjktMS4zNiwyLjcxLTEuNzVjMS4yNi0wLjQ4LDIuNTctMC43MywzLjg5LTAuODljMS44My0wLjIzLDMuNjYtMC4yNSw1LjQ5LTAuMTcgICAgICAgYzEuOTcsMC4wOCwzLjkyLDAuMzUsNS43OCwxLjA3YzEuMjYsMC40OSwyLjQsMS4xNiwzLjIzLDIuMjZjMC42OSwwLjkxLDEuMDEsMS45MiwwLjk1LDMuMDhjLTAuMDUsMC45My0wLjAyLDEuODctMC4wMSwyLjgxICAgICAgIGMwLDEuNzMsMC4wMSwzLjQ2LDAuMDEsNS4xOWMwLDEuMDIsMC4wMiwyLjA0LTAuMDUsMy4wNmMtMC4xNCwyLjQtMS4yOSw0LjExLTMuNTEsNS4wNGMtMS4wMSwwLjQyLTIuMDYsMC42MS0zLjE0LDAuNjEgICAgICAgYy0zLjgyLDAtNy42NS0wLjAxLTExLjQ3LDBjLTEuMjIsMC0yLjM5LDAuMjctMy40NSwwLjkxYy0xLjQsMC44NS0yLjIsMi4xNS0yLjY1LDMuN2MtMC4yMiwwLjc3LTAuMzEsMS41Ny0wLjMyLDIuMzcgICAgICAgYzAsMS43MywwLDMuNDYsMCw1LjE5YzAsMC4zNSwwLDAuMzUtMC4zNCwwLjM1Yy0xLjI1LDAtMi40OSwwLjA0LTMuNzQsMC4wMWMtMS4yNy0wLjA0LTIuMzctMC41NC0zLjMyLTEuMzcgICAgICAgYy0xLjEyLTAuOTYtMS44Mi0yLjE5LTIuMzEtMy41NmMtMC40Ni0xLjI1LTAuNzMtMi41NC0wLjg0LTMuODZjLTAuMDgtMC44NC0wLjExLTEuNjgtMC4xNi0yLjUyICAgICAgIEMwLjA0LDUxLjg3LDAuMDIsNTEuNzgsMCw1MS42OUMwLDUxLjUyLDAsNTEuMzUsMCw1MS4xN3oiLz4mI3hhOwkJCQk8L2c+JiN4YTsJCQkJPGcgaWQ9InNoYXBlMTE4MS02IiB0cmFuc2Zvcm09InRyYW5zbGF0ZSgxNS4yMDMzLC0yNy44MzIpIj4mI3hhOwkJCQkJPHRpdGxlIGlkPSJ0aXRsZTE5NjkxOCI+U2hlZXQuMTE4MTwvdGl0bGU+JiN4YTsJCQkJCTxwYXRoIGlkPSJwYXRoMTk2OTIwIiBpbmtzY2FwZTpjb25uZWN0b3ItY3VydmF0dXJlPSIwIiBkPSJNMCw2MS4xNWMwLDEuMTksMC45NCwyLjE1LDIuMTEsMi4xNWMxLjE1LDAsMi4xMS0wLjk3LDIuMTEtMi4xMyAgICAgICBjMC0xLjE5LTAuOTUtMi4xNi0yLjExLTIuMTVDMC45Myw1OS4wMywwLDU5Ljk3LDAsNjEuMTV6Ii8+JiN4YTsJCQkJPC9nPiYjeGE7CQkJCTxnIGlkPSJzaGFwZTExODItOCIgdHJhbnNmb3JtPSJ0cmFuc2xhdGUoMTUuMjAzMywtMjcuODMyKSI+JiN4YTsJCQkJCTx0aXRsZSBpZD0idGl0bGUxOTY5MjMiPlNoZWV0LjExODI8L3RpdGxlPiYjeGE7CQkJCQk8cGF0aCBpZD0icGF0aDE5NjkyNSIgaW5rc2NhcGU6Y29ubmVjdG9yLWN1cnZhdHVyZT0iMCIgc3R5bGU9ImZpbGw6I0ZGRkZGRjsiIGQ9Ik0wLDYxLjE1YzAtMS4xOCwwLjkzLTIuMTIsMi4xMS0yLjEzICAgICAgIGMxLjE2LTAuMDEsMi4xMSwwLjk2LDIuMTEsMi4xNWMwLDEuMTYtMC45NiwyLjEzLTIuMTEsMi4xM0MwLjk0LDYzLjMsMCw2Mi4zNCwwLDYxLjE1eiIvPiYjeGE7CQkJCTwvZz4mI3hhOwkJCTwvZz4mI3hhOwkJCTxnIGlkPSJncm91cDExODMtMTAiIHRyYW5zZm9ybT0idHJhbnNsYXRlKDEyLjU5NCkiPiYjeGE7CQkJCTx0aXRsZSBpZD0idGl0bGUxOTY5MjkiPlNoZWV0LjExODM8L3RpdGxlPiYjeGE7CQkJCTxnIGlkPSJzaGFwZTExODQtMTEiPiYjeGE7CQkJCQk8dGl0bGUgaWQ9InRpdGxlMTk2OTMxIj5TaGVldC4xMTg0PC90aXRsZT4mI3hhOwkJCQkJPHBhdGggaWQ9InBhdGgxOTY5MzMiIGlua3NjYXBlOmNvbm5lY3Rvci1jdXJ2YXR1cmU9IjAiIHN0eWxlPSJmaWxsOiNGRkRBNEI7IiBkPSJNMzUuNDEsMzkuNjZjLTAuMDIsMC4wNy0wLjA1LDAuMTQtMC4wNSwwLjIxICAgICAgIGMtMC4wNCwwLjctMC4wNSwxLjQtMC4xMiwyLjA5Yy0wLjIzLDIuMjctMC43NSw0LjQ1LTIuMTcsNi4yOWMtMS4xLDEuNDQtMi41NCwyLjMtNC4zNCwyLjUzYy0wLjI1LDAuMDQtMC41LDAuMDUtMC43NiwwLjA1ICAgICAgIGMtNS4zOSwwLTEwLjc4LDAtMTYuMTcsMGMtMC4zMiwwLTAuMzIsMC0wLjMyLDAuMzJjMCwwLjM3LDAuMDEsMC43NSwwLDEuMTJjLTAuMDIsMC4yMywwLjA3LDAuMjksMC4yOCwwLjI5ICAgICAgIGMyLjk4LTAuMDEsNS45Ni0wLjAxLDguOTQtMC4wMWMwLjY5LDAsMS4zOSwwLjAxLDIuMDksMGMwLjE5LDAsMC4yNSwwLjA1LDAuMjUsMC4yNWMtMC4wMSwxLjgzLDAuMDEsMy42Ny0wLjAxLDUuNSAgICAgICBjLTAuMDEsMC44Mi0wLjM5LDEuNTEtMC45MywyLjExYy0wLjc0LDAuODMtMS42OCwxLjM2LTIuNywxLjc1Yy0xLjI2LDAuNDgtMi41NywwLjcyLTMuOSwwLjg5Yy0xLjgyLDAuMjMtMy42NSwwLjI1LTUuNDgsMC4xNyAgICAgICBjLTEuOTctMC4wOS0zLjkyLTAuMzUtNS43OC0xLjA3Yy0xLjI2LTAuNDktMi40LTEuMTYtMy4yNC0yLjI3Yy0wLjY4LTAuOS0xLTEuOTItMC45NC0zLjA3YzAuMDUtMC45MywwLjAxLTEuODcsMC4wMS0yLjgxICAgICAgIGMwLTEuNzMtMC4wMS0zLjQ2LTAuMDEtNS4xOWMwLTEuMDItMC4wMi0yLjA0LDAuMDQtMy4wNmMwLjE0LTIuNCwxLjI5LTQuMTEsMy41Mi01LjA0YzEtMC40MywyLjA2LTAuNjEsMy4xNC0wLjYxICAgICAgIGMzLjgyLDAsNy42NCwwLjAxLDExLjQ2LDBjMS4yMywwLDIuNC0wLjI3LDMuNDYtMC45MWMxLjQtMC44NSwyLjItMi4xNSwyLjY0LTMuN2MwLjIyLTAuNzcsMC4zMi0xLjU3LDAuMzItMi4zNyAgICAgICBjMC4wMS0xLjczLDAtMy40NiwwLTUuMmMwLTAuMzQsMC0wLjM0LDAuMzUtMC4zNGMxLjI0LDAsMi40OS0wLjA0LDMuNzMtMC4wMWMxLjI3LDAuMDQsMi4zNywwLjU0LDMuMzMsMS4zNyAgICAgICBjMS4xMSwwLjk2LDEuODEsMi4xOSwyLjMxLDMuNTZjMC40NSwxLjI1LDAuNzIsMi41NCwwLjg0LDMuODZjMC4wNywwLjg0LDAuMTEsMS42OCwwLjE2LDIuNTFjMCwwLjEsMC4wMywwLjE5LDAuMDUsMC4yOCAgICAgICBDMzUuNDEsMzkuMzIsMzUuNDEsMzkuNDksMzUuNDEsMzkuNjZ6Ii8+JiN4YTsJCQkJPC9nPiYjeGE7CQkJCTxnIGlkPSJzaGFwZTExODUtMTMiIHRyYW5zZm9ybT0idHJhbnNsYXRlKDE1Ljk4MTMsLTMuOTEyKSI+JiN4YTsJCQkJCTx0aXRsZSBpZD0idGl0bGUxOTY5MzYiPlNoZWV0LjExODU8L3RpdGxlPiYjeGE7CQkJCQk8cGF0aCBpZD0icGF0aDE5NjkzOCIgaW5rc2NhcGU6Y29ubmVjdG9yLWN1cnZhdHVyZT0iMCIgZD0iTTQuMjIsNjEuMTZjMC0xLjE5LTAuOTQtMi4xNS0yLjExLTIuMTVDMC45Niw1OS4wMiwwLDU5Ljk4LDAsNjEuMTQgICAgICAgYzAsMS4xOSwwLjk1LDIuMTYsMi4xMiwyLjE1UzQuMjIsNjIuMzQsNC4yMiw2MS4xNnoiLz4mI3hhOwkJCQk8L2c+JiN4YTsJCQkJPGcgaWQ9InNoYXBlMTE4Ni0xNSIgdHJhbnNmb3JtPSJ0cmFuc2xhdGUoMTUuOTgwNywtMy45MTIpIj4mI3hhOwkJCQkJPHRpdGxlIGlkPSJ0aXRsZTE5Njk0MSI+U2hlZXQuMTE4NjwvdGl0bGU+JiN4YTsJCQkJCTxwYXRoIGlkPSJwYXRoMTk2OTQzIiBpbmtzY2FwZTpjb25uZWN0b3ItY3VydmF0dXJlPSIwIiBzdHlsZT0iZmlsbDojRkZGRkZGOyIgZD0iTTQuMjIsNjEuMTZjMCwxLjE4LTAuOTMsMi4xMi0yLjEsMi4xMyAgICAgICBDMC45NSw2My4zLDAsNjIuMzMsMCw2MS4xNGMwLTEuMTYsMC45Ni0yLjEyLDIuMTEtMi4xM0MzLjI4LDU5LjAxLDQuMjIsNTkuOTcsNC4yMiw2MS4xNnoiLz4mI3hhOwkJCQk8L2c+JiN4YTsJCQk8L2c+JiN4YTsJCTwvZz4mI3hhOwk8L2c+JiN4YTs8L2c+JiN4YTs8L3N2Zz4=;" vertex="1" parent="1">
          <mxGeometry x="628" y="223" width="55" height="50" as="geometry" />
        </mxCell>
        <mxCell id="OLqGh2U1M8ATQisH8Z9P-15" value="&lt;p style=&quot;margin-bottom: 0cm; line-height: 1px; font-variant-numeric: normal; font-variant-east-asian: normal; font-variant-alternates: normal; text-align: start;&quot;&gt;&lt;font face=&quot;Calibri, sans-serif&quot;&gt;&lt;span style=&quot;font-size: 14.6667px;&quot;&gt;Request&lt;/span&gt;&lt;/font&gt;&lt;/p&gt;" style="text;html=1;resizable=0;points=[];autosize=1;align=center;verticalAlign=top;spacingTop=-4;labelBackgroundColor=none;" vertex="1" parent="1">
          <mxGeometry x="484.5" y="689.5" width="80" height="20" as="geometry" />
        </mxCell>
        <mxCell id="OLqGh2U1M8ATQisH8Z9P-16" value="&lt;p style=&quot;margin-bottom: 0cm; line-height: 1px; font-size: medium; font-variant-numeric: normal; font-variant-east-asian: normal; font-variant-alternates: normal; text-align: start;&quot;&gt;&lt;font face=&quot;Calibri, sans-serif&quot;&gt;&lt;font style=&quot;font-size: 11pt;&quot;&gt;Python&lt;/font&gt;&lt;/font&gt;&lt;/p&gt;" style="text;html=1;resizable=0;points=[];autosize=1;align=center;verticalAlign=top;spacingTop=-4;labelBackgroundColor=none;" vertex="1" parent="1">
          <mxGeometry x="619.5" y="268.5" width="70" height="30" as="geometry" />
        </mxCell>
        <mxCell id="OLqGh2U1M8ATQisH8Z9P-17" style="edgeStyle=elbowEdgeStyle;rounded=0;orthogonalLoop=1;jettySize=auto;elbow=vertical;html=1;strokeColor=#808080;entryX=0.4;entryY=-0.042;entryDx=0;entryDy=0;entryPerimeter=0;" edge="1" parent="1" target="OLqGh2U1M8ATQisH8Z9P-2">
          <mxGeometry relative="1" as="geometry">
            <mxPoint x="660" y="300" as="sourcePoint" />
            <mxPoint x="660" y="400" as="targetPoint" />
          </mxGeometry>
        </mxCell>
        <mxCell id="OLqGh2U1M8ATQisH8Z9P-19" value="" style="shadow=0;dashed=0;html=1;strokeColor=none;fillColor=#4495D1;labelPosition=center;verticalLabelPosition=bottom;verticalAlign=top;align=center;outlineConnect=0;shape=mxgraph.veeam.table;" vertex="1" parent="1">
          <mxGeometry x="840" y="408.6" width="70" height="80.4" as="geometry" />
        </mxCell>
        <mxCell id="OLqGh2U1M8ATQisH8Z9P-21" value="4" style="ellipse;whiteSpace=wrap;html=1;aspect=fixed;fillColor=#4D9900;strokeColor=none;labelBackgroundColor=none;" vertex="1" parent="1">
          <mxGeometry x="689.5" y="420.5" width="23" height="23" as="geometry" />
        </mxCell>
      </root>
    </mxGraphModel>
  </diagram>
</mxfile>
